<?xml version="1.0" encoding="UTF-8" standalone="no"?>
<svg
   xmlns:dc="http://purl.org/dc/elements/1.1/"
   xmlns:cc="http://creativecommons.org/ns#"
   xmlns:rdf="http://www.w3.org/1999/02/22-rdf-syntax-ns#"
   xmlns:svg="http://www.w3.org/2000/svg"
   xmlns="http://www.w3.org/2000/svg"
   xmlns:sodipodi="http://sodipodi.sourceforge.net/DTD/sodipodi-0.dtd"
   xmlns:inkscape="http://www.inkscape.org/namespaces/inkscape"
   width="210mm"
   height="297mm"
   viewBox="0 0 210 297"
   version="1.1"
   id="svg8"
   inkscape:version="1.0.2 (e86c870879, 2021-01-15)"
   sodipodi:docname="logo_prev.svg">
  <defs
     id="defs2" />
  <sodipodi:namedview
     id="base"
     pagecolor="#ffffff"
     bordercolor="#666666"
     borderopacity="1.0"
     inkscape:pageopacity="0.0"
     inkscape:pageshadow="2"
     inkscape:zoom="0.9899495"
     inkscape:cx="185.26807"
     inkscape:cy="499.7548"
     inkscape:document-units="mm"
     inkscape:current-layer="layer1"
     inkscape:document-rotation="0"
     showgrid="false"
     inkscape:window-width="1920"
     inkscape:window-height="1051"
     inkscape:window-x="1920"
     inkscape:window-y="0"
     inkscape:window-maximized="1" />
  <metadata
     id="metadata5">
    <rdf:RDF>
      <cc:Work
         rdf:about="">
        <dc:format>image/svg+xml</dc:format>
        <dc:type
           rdf:resource="http://purl.org/dc/dcmitype/StillImage" />
        <dc:title />
      </cc:Work>
    </rdf:RDF>
  </metadata>
  <g
     inkscape:label="Layer 1"
     inkscape:groupmode="layer"
     id="layer1">
    <path
       style="fill:none;stroke:#000000;stroke-width:0.542584px;stroke-linecap:butt;stroke-linejoin:miter;stroke-opacity:1"
       d="m 21.109183,95.123395 c 0,0 -8.907248,22.564255 3.986791,32.365695 12.894037,9.80145 49.628644,25.91659 49.628644,25.91659 0,0 27.763952,6.67605 28.086872,-8.96601 v 0 c 0,0 4.71988,19.51879 36.87195,3.65001 l 32.15204,-15.86877 c 0,0 19.68924,-14.77998 9.77807,-37.576835 -9.91116,-22.796829 -18.18723,-27.863647 -18.18723,-27.863647 l -17.60241,-6.84901 -9.99106,7.741704 c 0,0 -22.82355,14.855476 -36.077673,14.204317 C 88.184034,81.308963 76.473137,73.562972 65.959081,66.162696 l -10.377904,-6.402714 -19.90611,9.157866 c 0,0 -12.706103,19.257297 -14.565884,26.205547 z"
       id="path109"
       sodipodi:nodetypes="cscccscscccscccc" />
    <path
       style="fill:none;stroke:#000000;stroke-width:0.542584px;stroke-linecap:butt;stroke-linejoin:miter;stroke-opacity:1"
       d="m 91.27336,137.85504 -6.257173,-2.34366 -2.164101,-3.47503 -1.696583,3.33479 0.166977,1.91919 z"
       id="path111"
       sodipodi:nodetypes="cccccc" />
    <path
       style="fill:none;stroke:#000000;stroke-width:0.542584px;stroke-linecap:butt;stroke-linejoin:miter;stroke-opacity:1"
       d="m 36.571401,81.443145 c 0,0 -3.341653,6.003326 -3.275481,10.751162 0.08875,6.367802 1.794048,13.907373 9.292478,14.307343 13.089271,0.69816 10.554961,0.59967 10.554961,0.59967 l 1.497902,-1.01062 z"
       id="path115"
       sodipodi:nodetypes="csccccc" />
    <path
       style="fill:none;stroke:#000000;stroke-width:0.542584px;stroke-linecap:butt;stroke-linejoin:miter;stroke-opacity:1"
       d="m 147.97353,106.80704 18.15176,-26.068385 2.55266,10.709691 c 0,0 6.68478,10.727094 -2.8048,13.503704 l -9.48957,2.77662 z"
       id="path117"
       sodipodi:nodetypes="cccscc" />
    <path
       style="fill:none;stroke:#000000;stroke-width:0.542584px;stroke-linecap:butt;stroke-linejoin:miter;stroke-opacity:1"
       d="m 131.24385,189.78494 c 0,0 23.56741,-33.77264 20.58832,-47.21976 0,0 -19.8045,7.82825 -19.32583,11.68914 0.0671,0.541 2.40545,10.35965 2.009,19.70703 -0.34541,8.1438 -3.27149,15.82359 -3.27149,15.82359 z"
       id="path121"
       sodipodi:nodetypes="ccssc" />
    <path
       style="fill:none;stroke:#000000;stroke-width:0.542584px;stroke-linecap:butt;stroke-linejoin:miter;stroke-opacity:1"
       d="m 71.435592,188.4359 c 0,0 -21.709221,-33.53699 -19.466416,-45.55907 l 22.755442,10.52885 -0.970135,10.33256 -5.107918,6.01691 3.791056,8.0085 z"
       id="path123"
       sodipodi:nodetypes="ccccccc" />
    <text
       xml:space="preserve"
       style="font-style:normal;font-weight:normal;font-size:52.68px;line-height:1.25;font-family:sans-serif;fill:#000000;fill-opacity:1;stroke:none;stroke-width:1.317"
       x="23.257666"
       y="239.23267"
       id="text81"><tspan
         sodipodi:role="line"
         id="tspan79"
         x="23.257666"
         y="239.23267"
         style="font-style:normal;font-variant:normal;font-weight:normal;font-stretch:normal;font-family:Anton;-inkscape-font-specification:Anton;stroke-width:1.317">Mandra</tspan></text>
    <path
       style="fill:none;stroke:#000000;stroke-width:0.542584px;stroke-linecap:butt;stroke-linejoin:miter;stroke-opacity:1"
       d="m 113.53293,137.97808 c 0,0 9.25499,-0.0451 9.85607,-1.3985 0.60109,-1.35347 -1.29342,-4.49713 -1.29342,-4.49713 l -2.35732,3.90477 z"
       id="path113"
       sodipodi:nodetypes="csccc" />
  </g>
</svg>
